<svg width="32" height="28" viewBox="0 0 32 28" fill="none" xmlns="http://www.w3.org/2000/svg">
<path d="M30.125 3C29.0911 3 28.25 3.84113 28.25 4.875C28.25 5.1595 28.3131 5.43425 28.4326 5.68356L27.1086 7.00756C24.7129 3.20494 20.5293 0.875 16 0.875C13.522 0.875 11.1087 1.56906 9.021 2.88225C8.72881 3.066 8.64094 3.45187 8.82469 3.74406C9.00844 4.03619 9.39431 4.12406 9.6865 3.94037C11.3987 2.86337 13.3536 2.24688 15.375 2.14131V5.89881C11.3921 6.20319 8.20319 9.39206 7.89881 13.375H4.14131C4.24688 11.3536 4.86337 9.39875 5.94037 7.6865C6.12413 7.39431 6.03625 7.00844 5.74406 6.82469C5.45175 6.64094 5.06606 6.72888 4.88225 7.021C3.56906 9.10869 2.875 11.522 2.875 14C2.875 16.0366 3.35138 18.0527 4.25481 19.8613L2.68356 21.4326C2.43425 21.3131 2.1595 21.25 1.875 21.25C0.841125 21.25 0 22.0911 0 23.125C0 24.1589 0.841125 25 1.875 25C2.90887 25 3.75 24.1589 3.75 23.125C3.75 22.8405 3.68687 22.5658 3.56744 22.3164L4.89156 20.9923C7.16731 24.6024 11.223 27.125 16 27.125C23.1966 27.125 29.125 21.3004 29.125 14C29.125 11.9634 28.6486 9.94737 27.7452 8.13869L29.3164 6.56744C29.5658 6.68687 29.8405 6.75 30.125 6.75C31.1589 6.75 32 5.90887 32 4.875C32 3.84113 31.1589 3 30.125 3ZM1.875 23.75C1.53038 23.75 1.25 23.4696 1.25 23.125C1.25 22.7804 1.53038 22.5 1.875 22.5C2.22 22.5 2.5 22.7799 2.5 23.125C2.5 23.4696 2.21962 23.75 1.875 23.75ZM16.625 2.14306C20.5747 2.35044 24.1657 4.51156 26.1994 7.91669L23.4219 10.6941C22.2257 8.025 19.6631 6.128 16.625 5.89906V2.14306ZM13.5 13.375C13.7845 13.375 14.0592 13.3119 14.3086 13.1924L16.8076 15.6914C16.6881 15.9407 16.625 16.2155 16.625 16.5C16.625 17.5339 17.4661 18.375 18.5 18.375C19.5339 18.375 20.375 17.5339 20.375 16.5C20.375 16.2155 20.3119 15.9407 20.1924 15.6914L22.8118 13.072C22.8531 13.3784 22.8749 13.6882 22.8749 13.9999C22.8749 17.7986 19.8009 20.8749 15.9999 20.8749C13.0156 20.8749 10.4962 18.9827 9.53662 16.3472L12.6914 13.1924C12.9408 13.3119 13.2155 13.375 13.5 13.375ZM12.875 11.5C12.875 11.1554 13.1554 10.875 13.5 10.875C13.8446 10.875 14.125 11.1554 14.125 11.5C14.125 11.845 13.8451 12.125 13.5 12.125C13.155 12.125 12.875 11.8451 12.875 11.5ZM17.875 16.5C17.875 16.155 18.1549 15.875 18.5 15.875C18.845 15.875 19.125 16.1549 19.125 16.5C19.125 16.8446 18.8446 17.125 18.5 17.125C18.1554 17.125 17.875 16.8446 17.875 16.5ZM16 7.125C18.9276 7.125 21.4797 8.93 22.4633 11.6528L19.3086 14.8076C19.0592 14.6881 18.7845 14.625 18.5 14.625C18.2155 14.625 17.9408 14.6881 17.6914 14.8076L15.1924 12.3086C15.3119 12.0592 15.375 11.7845 15.375 11.5C15.375 10.4661 14.5339 9.625 13.5 9.625C12.4661 9.625 11.625 10.4661 11.625 11.5C11.625 11.7845 11.6881 12.0592 11.8076 12.3086L9.18812 14.928C9.14681 14.6216 9.125 14.3118 9.125 14.0001C9.125 10.2091 12.2091 7.125 16 7.125ZM4.14275 14.625H7.89919C7.93444 15.0876 8.00956 15.5451 8.12263 15.9935L5.1925 18.9236C4.57869 17.5757 4.22125 16.113 4.14275 14.625ZM5.80044 20.0835L8.57712 17.3068C8.8965 18.0212 9.31994 18.6891 9.83069 19.2854L7.17406 21.942C6.65663 21.3674 6.19619 20.7459 5.80044 20.0835ZM16 25.875C13.0368 25.875 10.24 24.7971 8.05669 22.8272L10.7136 20.1703C12.1846 21.4351 14.0391 22.125 16 22.125C17.9611 22.125 19.8156 21.435 21.2864 20.1703L23.9433 22.8272C21.7601 24.7971 18.9632 25.875 16 25.875ZM27.875 14C27.875 16.9632 26.7971 19.7599 24.8272 21.9433L22.1703 19.2864C23.4351 17.8154 24.125 15.9609 24.125 14C24.125 13.3246 24.0411 12.6559 23.8774 12.0065L26.8075 9.07644C27.5071 10.6127 27.875 12.2981 27.875 14ZM30.125 5.5C29.78 5.5 29.5 5.22006 29.5 4.875C29.5 4.53038 29.7804 4.25 30.125 4.25C30.4696 4.25 30.75 4.53038 30.75 4.875C30.75 5.21962 30.4696 5.5 30.125 5.5Z" fill="#FA9804"/>
</svg>
