<svg width="25" height="25" viewBox="0 0 25 25" fill="none" xmlns="http://www.w3.org/2000/svg">
<g clip-path="url(#clip0_188_103)">
<path d="M23.0938 3.86975C22.3183 3.86975 21.6875 4.50059 21.6875 5.276C21.6875 5.48938 21.7348 5.69544 21.8244 5.88242L20.8314 6.87542C19.0347 4.02345 15.897 2.276 12.5 2.276C10.6415 2.276 8.83152 2.79655 7.26575 3.78144C7.04661 3.91925 6.9807 4.20866 7.11852 4.4278C7.25633 4.64689 7.54573 4.7128 7.76487 4.57503C9.04906 3.76728 10.5152 3.30491 12.0312 3.22574V6.04386C9.04405 6.27214 6.65239 8.6638 6.42411 11.651H3.60598C3.68516 10.1349 4.14753 8.66881 4.95528 7.38463C5.09309 7.16548 5.02719 6.87608 4.80805 6.73827C4.58881 6.60045 4.29955 6.66641 4.16169 6.8855C3.1768 8.45127 2.65625 10.2613 2.65625 12.1198C2.65625 13.6472 3.01353 15.1593 3.69111 16.5157L2.51267 17.6942C2.32569 17.6046 2.11962 17.5573 1.90625 17.5573C1.13084 17.5573 0.5 18.1881 0.5 18.9635C0.5 19.7389 1.13084 20.3698 1.90625 20.3698C2.68166 20.3698 3.3125 19.7389 3.3125 18.9635C3.3125 18.7501 3.26516 18.5441 3.17558 18.3571L4.16867 17.364C5.87548 20.0716 8.91725 21.9635 12.5 21.9635C17.8974 21.9635 22.3438 17.5951 22.3438 12.1198C22.3438 10.5923 21.9865 9.08028 21.3089 7.72377L22.4873 6.54533C22.6743 6.63491 22.8804 6.68225 23.0938 6.68225C23.8692 6.68225 24.5 6.05141 24.5 5.276C24.5 4.50059 23.8692 3.86975 23.0938 3.86975ZM1.90625 19.4323C1.64778 19.4323 1.4375 19.222 1.4375 18.9635C1.4375 18.705 1.64778 18.4948 1.90625 18.4948C2.165 18.4948 2.375 18.7047 2.375 18.9635C2.375 19.222 2.16472 19.4323 1.90625 19.4323ZM12.9688 3.22705C15.931 3.38258 18.6243 5.00342 20.1495 7.55727L18.0665 9.64034C17.1693 7.6385 15.2473 6.21575 12.9688 6.04405V3.22705ZM10.625 11.651C10.8384 11.651 11.0444 11.6037 11.2314 11.5141L13.1057 13.3883C13.0161 13.5753 12.9688 13.7814 12.9688 13.9948C12.9688 14.7702 13.5996 15.401 14.375 15.401C15.1504 15.401 15.7812 14.7702 15.7812 13.9948C15.7812 13.7814 15.7339 13.5753 15.6443 13.3883L17.6089 11.4238C17.6398 11.6536 17.6562 11.8859 17.6562 12.1197C17.6562 14.9687 15.3507 17.276 12.5 17.276C10.2617 17.276 8.37214 15.8568 7.65247 13.8801L10.0185 11.5141C10.2056 11.6037 10.4116 11.651 10.625 11.651ZM10.1562 10.2448C10.1562 9.98628 10.3665 9.776 10.625 9.776C10.8835 9.776 11.0938 9.98628 11.0938 10.2448C11.0938 10.5035 10.8838 10.7135 10.625 10.7135C10.3663 10.7135 10.1562 10.5035 10.1562 10.2448ZM13.9062 13.9948C13.9062 13.736 14.1162 13.526 14.375 13.526C14.6337 13.526 14.8438 13.736 14.8438 13.9948C14.8438 14.2532 14.6335 14.4635 14.375 14.4635C14.1165 14.4635 13.9062 14.2532 13.9062 13.9948ZM12.5 6.9635C14.6957 6.9635 16.6098 8.31725 17.3475 10.3594L14.9814 12.7254C14.7944 12.6358 14.5884 12.5885 14.375 12.5885C14.1616 12.5885 13.9556 12.6358 13.7686 12.7254L11.8943 10.8512C11.9839 10.6642 12.0312 10.4581 12.0312 10.2448C12.0312 9.46934 11.4004 8.8385 10.625 8.8385C9.84959 8.8385 9.21875 9.46934 9.21875 10.2448C9.21875 10.4581 9.26609 10.6642 9.35567 10.8512L7.39109 12.8158C7.36011 12.5859 7.34375 12.3536 7.34375 12.1198C7.34375 9.2766 9.65684 6.9635 12.5 6.9635ZM3.60706 12.5885H6.42439C6.45083 12.9355 6.50717 13.2786 6.59197 13.6149L4.39438 15.8125C3.93402 14.8015 3.66594 13.7045 3.60706 12.5885ZM4.85033 16.6824L6.93284 14.5999C7.17237 15.1356 7.48995 15.6365 7.87302 16.0838L5.88055 18.0763C5.49247 17.6453 5.14714 17.1792 4.85033 16.6824ZM12.5 21.026C10.2776 21.026 8.18 20.2175 6.54252 18.7401L8.53517 16.7475C9.63847 17.696 11.0293 18.2135 12.5 18.2135C13.9708 18.2135 15.3617 17.696 16.4648 16.7475L18.4575 18.7401C16.82 20.2175 14.7224 21.026 12.5 21.026ZM21.4062 12.1198C21.4062 14.3421 20.5978 16.4397 19.1204 18.0772L17.1277 16.0846C18.0763 14.9813 18.5938 13.5905 18.5938 12.1198C18.5938 11.6132 18.5308 11.1117 18.4081 10.6246L20.6056 8.42708C21.1303 9.57927 21.4062 10.8433 21.4062 12.1198ZM23.0938 5.74475C22.835 5.74475 22.625 5.5348 22.625 5.276C22.625 5.01753 22.8353 4.80725 23.0938 4.80725C23.3522 4.80725 23.5625 5.01753 23.5625 5.276C23.5625 5.53447 23.3522 5.74475 23.0938 5.74475Z" fill="#437DEB"/>
<path d="M5.84375 5.93225C6.10263 5.93225 6.3125 5.72238 6.3125 5.4635C6.3125 5.20462 6.10263 4.99475 5.84375 4.99475C5.58487 4.99475 5.375 5.20462 5.375 5.4635C5.375 5.72238 5.58487 5.93225 5.84375 5.93225Z" fill="#ABB1BD"/>
</g>
<defs>
<clipPath id="clip0_188_103">
<rect width="24" height="24" fill="white" transform="translate(0.5 0.119751)"/>
</clipPath>
</defs>
</svg>
