<svg width="25" height="25" viewBox="0 0 25 25" fill="none" xmlns="http://www.w3.org/2000/svg">
<path d="M20 11.6141V10.7291C20 10.1324 19.7629 9.56009 19.341 9.13814C18.919 8.71618 18.3467 8.47913 17.75 8.47913H16.25C16.0511 8.47913 15.8603 8.55814 15.7197 8.6988C15.579 8.83945 15.5 9.03021 15.5 9.22913C15.5 9.42804 15.579 9.6188 15.7197 9.75946C15.8603 9.90011 16.0511 9.97913 16.25 9.97913H17.75C17.9489 9.97913 18.1397 10.0581 18.2803 10.1988C18.421 10.3394 18.5 10.5302 18.5 10.7291V11.4791H5.75C5.55109 11.4791 5.36032 11.4001 5.21967 11.2595C5.07902 11.1188 5 10.928 5 10.7291C5 10.5302 5.07902 10.3394 5.21967 10.1988C5.36032 10.0581 5.55109 9.97913 5.75 9.97913H7.25C7.44891 9.97913 7.63968 9.90011 7.78033 9.75946C7.92098 9.6188 8 9.42804 8 9.22913C8 9.03021 7.92098 8.83945 7.78033 8.6988C7.63968 8.55814 7.44891 8.47913 7.25 8.47913H5.75C5.15326 8.47913 4.58097 8.71618 4.15901 9.13814C3.73705 9.56009 3.5 10.1324 3.5 10.7291V21.2291C3.5 21.8259 3.73705 22.3982 4.15901 22.8201C4.58097 23.2421 5.15326 23.4791 5.75 23.4791H19.25C19.8467 23.4791 20.419 23.2421 20.841 22.8201C21.2629 22.3982 21.5 21.8259 21.5 21.2291V13.7291C21.4987 13.2649 21.3538 12.8125 21.0853 12.4338C20.8168 12.0552 20.4377 11.7689 20 11.6141ZM19.25 21.9791H5.75C5.55109 21.9791 5.36032 21.9001 5.21967 21.7595C5.07902 21.6188 5 21.428 5 21.2291V12.8441C5.24051 12.9314 5.49414 12.9771 5.75 12.9791H19.25C19.4489 12.9791 19.6397 13.0581 19.7803 13.1988C19.921 13.3394 20 13.5302 20 13.7291V15.2291H17.75C17.1533 15.2291 16.581 15.4662 16.159 15.8881C15.7371 16.3101 15.5 16.8824 15.5 17.4791C15.5 18.0759 15.7371 18.6482 16.159 19.0701C16.581 19.4921 17.1533 19.7291 17.75 19.7291H20V21.2291C20 21.428 19.921 21.6188 19.7803 21.7595C19.6397 21.9001 19.4489 21.9791 19.25 21.9791ZM20 16.7291V18.2291H17.75C17.5511 18.2291 17.3603 18.1501 17.2197 18.0095C17.079 17.8688 17 17.678 17 17.4791C17 17.2802 17.079 17.0894 17.2197 16.9488C17.3603 16.8081 17.5511 16.7291 17.75 16.7291H20Z" fill="#437DEB"/>
<path d="M11.2175 9.76163C11.2872 9.83192 11.3702 9.88772 11.4616 9.92579C11.553 9.96387 11.651 9.98347 11.75 9.98347C11.849 9.98347 11.947 9.96387 12.0384 9.92579C12.1298 9.88772 12.2128 9.83192 12.2825 9.76163L14.5325 7.51163C14.6737 7.3704 14.7531 7.17885 14.7531 6.97913C14.7531 6.7794 14.6737 6.58785 14.5325 6.44663C14.3913 6.3054 14.1997 6.22606 14 6.22606C13.8003 6.22606 13.6087 6.3054 13.4675 6.44663L12.5 7.42163V3.22913C12.5 3.03021 12.421 2.83945 12.2803 2.6988C12.1397 2.55814 11.9489 2.47913 11.75 2.47913C11.5511 2.47913 11.3603 2.55814 11.2197 2.6988C11.079 2.83945 11 3.03021 11 3.22913V7.42163L10.0325 6.44663C9.96257 6.3767 9.87956 6.32123 9.78819 6.28338C9.69682 6.24554 9.5989 6.22606 9.5 6.22606C9.40111 6.22606 9.30318 6.24554 9.21181 6.28338C9.12045 6.32123 9.03743 6.3767 8.9675 6.44663C8.89757 6.51655 8.8421 6.59957 8.80426 6.69094C8.76641 6.78231 8.74693 6.88023 8.74693 6.97913C8.74693 7.07802 8.76641 7.17595 8.80426 7.26731C8.8421 7.35868 8.89757 7.4417 8.9675 7.51163L11.2175 9.76163Z" fill="#437DEB"/>
</svg>
