<svg width="28" height="28" viewBox="0 0 28 28" fill="none" xmlns="http://www.w3.org/2000/svg">
<path d="M11.1176 0H16.8824C18.2468 0 19.3529 1.10612 19.3529 2.47059V4.11765C19.3529 5.48212 18.2468 6.58824 16.8824 6.58824H11.1176C9.75318 6.58824 8.64706 5.48212 8.64706 4.11765V2.47059C8.64706 1.10612 9.75318 0 11.1176 0ZM11.1176 1.64706C10.6628 1.64706 10.2941 2.01577 10.2941 2.47059V4.11765C10.2941 4.57247 10.6628 4.94118 11.1176 4.94118H16.8824C17.3372 4.94118 17.7059 4.57247 17.7059 4.11765V2.47059C17.7059 2.01577 17.3372 1.64706 16.8824 1.64706H11.1176ZM11.1176 21.4118H16.8824C18.2468 21.4118 19.3529 22.5179 19.3529 23.8824V25.5294C19.3529 26.8939 18.2468 28 16.8824 28H11.1176C9.75318 28 8.64706 26.8939 8.64706 25.5294V23.8824C8.64706 22.5179 9.75318 21.4118 11.1176 21.4118ZM11.1176 23.0588C10.6628 23.0588 10.2941 23.4275 10.2941 23.8824V25.5294C10.2941 25.9842 10.6628 26.3529 11.1176 26.3529H16.8824C17.3372 26.3529 17.7059 25.9842 17.7059 25.5294V23.8824C17.7059 23.4275 17.3372 23.0588 16.8824 23.0588H11.1176ZM11.1176 10.7059H16.8824C18.2468 10.7059 19.3529 11.812 19.3529 13.1765V14.8235C19.3529 16.188 18.2468 17.2941 16.8824 17.2941H11.1176C9.75318 17.2941 8.64706 16.188 8.64706 14.8235V13.1765C8.64706 11.812 9.75318 10.7059 11.1176 10.7059ZM11.1176 12.3529C10.6628 12.3529 10.2941 12.7216 10.2941 13.1765V14.8235C10.2941 15.2784 10.6628 15.6471 11.1176 15.6471H16.8824C17.3372 15.6471 17.7059 15.2784 17.7059 14.8235V13.1765C17.7059 12.7216 17.3372 12.3529 16.8824 12.3529H11.1176ZM4.52088 25.3051C1.8987 24.5784 0 22.1732 0 19.3529C0 15.9418 2.7653 13.1765 6.17647 13.1765H6.58824C7.04306 13.1765 7.41176 13.5452 7.41176 14C7.41176 14.4548 7.04306 14.8235 6.58824 14.8235H6.17647C3.67495 14.8235 1.64706 16.8514 1.64706 19.3529C1.64706 21.4522 3.08232 23.2384 5.04907 23.7413L4.64677 23.0707C4.41277 22.6807 4.53923 22.1749 4.92924 21.9409C5.31925 21.7069 5.82511 21.8334 6.05911 22.2234L7.2944 24.2822C7.50648 24.6357 7.42456 25.0915 7.10269 25.349L5.04387 26.996C4.68871 27.2801 4.17047 27.2226 3.88634 26.8674C3.60222 26.5122 3.6598 25.994 4.01496 25.7099L4.52088 25.3051ZM23.4791 14.5993L23.985 15.004C24.3402 15.2881 24.3978 15.8064 24.1137 16.1615C23.8295 16.5167 23.3113 16.5743 22.9561 16.2901L20.8973 14.6431C20.5754 14.3856 20.4935 13.9298 20.7056 13.5763L21.9409 11.5175C22.1749 11.1275 22.6808 11.001 23.0708 11.235C23.4608 11.469 23.5872 11.9748 23.3532 12.3649L22.9509 13.0354C24.9184 12.5324 26.3529 10.7456 26.3529 8.64706C26.3529 6.14553 24.3251 4.11765 21.8235 4.11765H21.4118C20.9569 4.11765 20.5882 3.74894 20.5882 3.29412C20.5882 2.83929 20.9569 2.47059 21.4118 2.47059H21.8235C25.2347 2.47059 28 5.23589 28 8.64706C28 11.4663 26.1023 13.8723 23.4791 14.5993Z" fill="#196DF4"/>
</svg>
