<svg width="32" height="32" viewBox="0 0 32 32" fill="none" xmlns="http://www.w3.org/2000/svg">
<path d="M8.5 18C4.794 18 2 19.72 2 22V26C2 28.28 4.794 30 8.5 30C12.206 30 15 28.28 15 26V22C15 19.72 12.206 18 8.5 18ZM8.5 20C11.247 20 13 21.185 13 22C13 22.815 11.247 24 8.5 24C5.753 24 4 22.815 4 22C4 21.185 5.753 20 8.5 20ZM8.5 28C5.753 28 4 26.815 4 26V24.933C5.151 25.599 6.718 26 8.5 26C10.282 26 11.849 25.599 13 24.933V26C13 26.815 11.247 28 8.5 28Z" fill="#40DE50"/>
<path d="M23.5 14C19.794 14 17 15.72 17 18V26C17 28.28 19.794 30 23.5 30C27.206 30 30 28.28 30 26V18C30 15.72 27.206 14 23.5 14ZM28 22C28 22.815 26.247 24 23.5 24C20.753 24 19 22.815 19 22V20.933C20.151 21.599 21.718 22 23.5 22C25.282 22 26.849 21.599 28 20.933V22ZM23.5 16C26.247 16 28 17.185 28 18C28 18.815 26.247 20 23.5 20C20.753 20 19 18.815 19 18C19 17.185 20.753 16 23.5 16ZM23.5 28C20.753 28 19 26.815 19 26V24.933C20.151 25.599 21.718 26 23.5 26C25.282 26 26.849 25.599 28 24.933V26C28 26.815 26.247 28 23.5 28Z" fill="#40DE50"/>
<path d="M28 3V8C28 8.552 27.553 9 27 9C26.447 9 26 8.552 26 8V5.414L18.707 12.707C18.316 13.098 17.684 13.098 17.293 12.707L12 7.414L5.70701 13.707C5.31601 14.098 4.68401 14.098 4.29301 13.707C3.90201 13.316 3.90201 12.684 4.29301 12.293L11.293 5.293C11.684 4.902 12.316 4.902 12.707 5.293L18 10.586L24.586 4H22C21.447 4 21 3.552 21 3C21 2.448 21.447 2 22 2H27C27.553 2 28 2.448 28 3Z" fill="#40DE50"/>
</svg>
