<svg width="25" height="25" viewBox="0 0 25 25" fill="none" xmlns="http://www.w3.org/2000/svg">
<path d="M9.42594 13.3619C11.4097 12.3949 13.2233 11.1532 14.8161 9.67241C16.6325 7.9835 18.1658 5.9735 19.3831 3.69209L19.2687 3.73194C18.9631 3.83788 18.6294 3.67616 18.523 3.37053C18.417 3.06491 18.5788 2.73116 18.8844 2.62475L20.3825 2.10491C20.5292 2.05381 20.6905 2.06366 20.8302 2.13116C20.9698 2.19913 21.0772 2.31959 21.1283 2.46631L21.6481 3.96444C21.7541 4.27006 21.5923 4.60381 21.2867 4.71022C21.223 4.73225 21.1583 4.74256 21.0945 4.74256C20.8517 4.74256 20.6248 4.59069 20.5409 4.34834L20.4702 4.14491C19.1783 6.59225 17.5391 8.74616 15.59 10.5532C13.9058 12.1146 11.9895 13.4215 9.89375 14.4377C6.32 16.1707 3.48734 16.4552 3.36875 16.4665C3.35 16.4683 3.33125 16.4693 3.3125 16.4693C3.01391 16.4693 2.75844 16.2419 2.72984 15.9387C2.69937 15.6166 2.93562 15.3307 3.25719 15.3002C3.29469 15.2965 6.04109 15.0124 9.42594 13.3624V13.3619ZM1.78906 7.00428C1.78906 3.89319 4.32031 1.36194 7.43141 1.36194C10.5425 1.36194 13.0737 3.89319 13.0737 7.00428C13.0737 10.1154 10.5425 12.6466 7.43141 12.6466C4.32031 12.6466 1.78906 10.1154 1.78906 7.00428ZM2.96094 7.00428C2.96094 9.46944 4.96625 11.4748 7.43141 11.4748C9.89656 11.4748 11.9019 9.46944 11.9019 7.00428C11.9019 4.53913 9.89656 2.53381 7.43141 2.53381C4.96625 2.53381 2.96094 4.53913 2.96094 7.00428ZM7.32219 7.57991C7.38359 7.59163 7.92078 7.70178 7.92078 7.9985C7.92078 8.2235 7.70141 8.40678 7.43141 8.40678C7.22937 8.40678 7.04516 8.29991 6.97297 8.141C6.83891 7.84663 6.49156 7.71631 6.19719 7.85038C5.90281 7.98444 5.7725 8.33178 5.90656 8.62616C6.08891 9.02694 6.43203 9.32881 6.84594 9.47694V9.8496C6.84594 10.173 7.10844 10.4355 7.43188 10.4355C7.75531 10.4355 8.01781 10.173 8.01781 9.8496V9.47694C8.64547 9.251 9.09313 8.67397 9.09313 7.9985C9.09313 7.22319 8.48375 6.60725 7.54109 6.42819C7.47969 6.41647 6.9425 6.30631 6.9425 6.00959C6.9425 5.78413 7.16188 5.60131 7.43188 5.60131C7.63391 5.60131 7.81813 5.70819 7.89031 5.86756C8.02437 6.16194 8.37125 6.29225 8.66609 6.15819C8.96047 6.02413 9.09078 5.67678 8.95672 5.38241C8.77437 4.98163 8.43125 4.67928 8.01734 4.53116V4.1585C8.01734 3.83506 7.75484 3.57256 7.43141 3.57256C7.10797 3.57256 6.84547 3.83506 6.84547 4.1585V4.53116C6.21781 4.75709 5.77016 5.33459 5.77016 6.00959C5.77016 6.78444 6.37953 7.40084 7.32266 7.57944L7.32219 7.57991ZM23.2105 22.1979C23.2105 22.5213 22.948 22.7838 22.6245 22.7838H2.375C2.05156 22.7838 1.78906 22.5213 1.78906 22.1979C1.78906 21.8744 2.05156 21.6119 2.375 21.6119H4.13281V19.2935C4.13281 17.9365 5.23672 16.8326 6.59375 16.8326C7.95078 16.8326 9.05469 17.9365 9.05469 19.2935V21.6119H10.0386V17.0435C10.0386 15.6865 11.1425 14.5826 12.4995 14.5826C13.8566 14.5826 14.9605 15.6865 14.9605 17.0435V21.6119H15.9444V12.7305C15.9444 11.3735 17.0483 10.2696 18.4053 10.2696C19.7623 10.2696 20.8663 11.3735 20.8663 12.7305V21.6119H22.6241C22.9475 21.6119 23.21 21.8744 23.21 22.1979H23.2105ZM7.88281 21.6119V19.2935C7.88281 18.5829 7.30438 18.0044 6.59375 18.0044C5.88312 18.0044 5.30469 18.5829 5.30469 19.2935V21.6119H7.88281ZM13.7886 21.6119V17.0435C13.7886 16.3329 13.2102 15.7544 12.4995 15.7544C11.7889 15.7544 11.2105 16.3329 11.2105 17.0435V21.6119H13.7886ZM19.6944 21.6119V12.7305C19.6944 12.0199 19.1159 11.4415 18.4053 11.4415C17.6947 11.4415 17.1163 12.0199 17.1163 12.7305V21.6119H19.6944Z" fill="#437DEB"/>
</svg>
