<svg width="25" height="25" viewBox="0 0 25 25" fill="none" xmlns="http://www.w3.org/2000/svg">
<g clip-path="url(#clip0_188_41)">
<path d="M10.6719 17.276C10.9306 17.276 11.1406 17.066 11.1406 16.8073C11.1406 16.5485 10.9306 16.3385 10.6719 16.3385C10.4131 16.3385 10.2031 16.5485 10.2031 16.8073C10.2031 17.066 10.4131 17.276 10.6719 17.276Z" fill="#437DEB"/>
<path d="M0.684204 18.3574L6.30921 23.9825C6.49232 24.1656 6.78895 24.1656 6.97205 23.9825L10.0658 20.8887C10.2489 20.7056 10.2489 20.409 10.0658 20.2259L9.92848 20.0885H16.6854C17.2789 20.0885 17.8452 19.8661 18.2819 19.4607L23.9687 14.131C24.513 13.6254 24.6934 12.8223 24.4173 12.1328C24.2177 11.6336 23.8101 11.2517 23.2992 11.0849C22.7882 10.9177 22.2339 10.9854 21.778 11.2703C21.7751 11.2722 20.5155 12.0987 20.5155 12.0987C20.5069 9.55775 18.9712 6.84815 16.8572 5.6283C16.9779 5.48969 17.0727 5.32563 17.1331 5.14197C17.375 4.40607 16.9729 3.60956 16.2359 3.36621C16.2129 3.35852 16.1898 3.35175 16.1667 3.34461L17.3734 1.177C17.4428 1.05231 17.4517 0.902711 17.3974 0.770875C17.3432 0.638856 17.2318 0.538697 17.0947 0.498963C16.2295 0.247376 15.3303 0.119751 14.4219 0.119751C13.5137 0.119751 12.6143 0.247376 11.7491 0.49878C11.612 0.538697 11.5006 0.638673 11.4462 0.770692C11.392 0.902711 11.4008 1.05231 11.4704 1.177L12.6771 3.34461C12.6536 3.35193 12.6302 3.35889 12.6068 3.36658C11.8709 3.60956 11.4689 4.40589 11.7108 5.14234C11.7713 5.32563 11.8668 5.48914 11.9879 5.62794C9.84242 6.86591 8.32814 9.60334 8.32814 12.1198C8.32814 12.1884 8.32978 12.2562 8.33198 12.3234C7.49244 12.5524 6.71186 12.9697 6.05543 13.5445L4.63087 14.7909L4.4408 14.6008C4.2577 14.4177 3.96106 14.4177 3.77796 14.6008L0.684204 17.6946C0.501099 17.8777 0.501099 18.1743 0.684204 18.3574ZM12.5859 1.25336C13.1865 1.12299 13.8017 1.05725 14.4219 1.05725C15.0421 1.05725 15.6573 1.12299 16.2581 1.25336L15.2135 3.12964C14.6868 3.05622 14.1566 3.05622 13.6305 3.12964L12.5859 1.25336ZM12.8994 4.25721C13.8612 3.94245 14.9099 3.91864 15.9431 4.25684C16.189 4.33796 16.3233 4.60383 16.2425 4.84919C16.1817 5.03394 16.0169 5.15937 15.8259 5.17054C14.9016 4.87665 13.9416 4.8761 13.0177 5.16962C13.0177 5.16962 13.0177 5.16962 13.0175 5.16962C12.8248 5.15754 12.6613 5.03156 12.6013 4.84937C12.5205 4.60364 12.6547 4.33777 12.8994 4.25721ZM13.1586 6.11115C13.9715 5.81837 14.8136 5.81141 15.6284 6.09138C17.8062 6.84028 19.5781 9.54457 19.5781 12.1198C19.5781 12.338 19.5644 12.546 19.5373 12.7405L17.2842 14.2187C16.9354 13.7866 16.4068 13.526 15.8281 13.526H14.8906V12.9767C15.4363 12.7832 15.8281 12.262 15.8281 11.651C15.8281 10.8756 15.1973 10.2448 14.4219 10.2448C14.1635 10.2448 13.9531 10.0346 13.9531 9.77601C13.9531 9.51747 14.1635 9.30726 14.4219 9.30726C14.588 9.30726 14.7632 9.39204 14.9289 9.55226C15.1149 9.73225 15.4118 9.72731 15.5918 9.54146C15.7717 9.35542 15.7668 9.05861 15.5808 8.87861C15.3429 8.64826 15.1049 8.51808 14.8906 8.44703V7.90101C14.8906 7.6421 14.6808 7.43226 14.4219 7.43226C14.163 7.43226 13.9531 7.6421 13.9531 7.90101V8.45033C13.4077 8.64387 13.0156 9.16499 13.0156 9.77601C13.0156 10.5515 13.6464 11.1823 14.4219 11.1823C14.6804 11.1823 14.8906 11.3925 14.8906 11.651C14.8906 11.9096 14.6804 12.1198 14.4219 12.1198C14.2216 12.1198 14.0055 11.9938 13.8133 11.7651C13.6466 11.567 13.3509 11.5413 13.1528 11.708C12.9547 11.8746 12.929 12.1703 13.0957 12.3684C13.3461 12.6665 13.6409 12.8742 13.9531 12.9789V13.526H13.7971C13.5668 13.526 13.4633 13.3759 13.3011 13.271C12.3107 12.5286 11.0839 12.1198 9.84645 12.1198C9.65291 12.1198 9.459 12.1298 9.266 12.1494C9.266 12.1395 9.26564 12.1298 9.26564 12.1198C9.26564 9.58064 11.0121 6.88532 13.1586 6.11115ZM6.67286 14.2498C7.5536 13.4786 8.68538 13.0573 9.84645 13.0573C10.8825 13.0573 11.9095 13.3995 12.7382 14.0208C12.8578 14.0907 13.1907 14.4635 13.797 14.4635H15.8281C16.3617 14.4635 16.7656 14.8973 16.7656 15.401C16.7656 15.9179 16.3451 16.3385 15.8281 16.3385H12.5469C12.288 16.3385 12.0781 16.5484 12.0781 16.8073C12.0781 17.0662 12.288 17.276 12.5469 17.276H15.8281C16.862 17.276 17.7031 16.4348 17.7031 15.401C17.7031 15.2935 17.6936 15.1875 17.6757 15.0831L22.2788 12.063C22.4978 11.9277 22.7635 11.896 23.0081 11.9758C23.2542 12.0564 23.4507 12.2404 23.5468 12.481C23.6821 12.8187 23.5971 13.1968 23.3291 13.4456L17.6425 18.7751C17.3814 19.0175 17.0416 19.151 16.6854 19.151H8.99098L5.29536 15.4552L6.67286 14.2498ZM4.10938 15.5951L9.07154 20.5573L6.64063 22.9882L1.67847 18.026L4.10938 15.5951Z" fill="#437DEB"/>
</g>
<defs>
<clipPath id="clip0_188_41">
<rect width="24" height="24" fill="white" transform="translate(0.5 0.166626)"/>
</clipPath>
</defs>
</svg>
