<svg width="25" height="25" viewBox="0 0 25 25" fill="none" xmlns="http://www.w3.org/2000/svg">
<path d="M6.875 13.526C4.0955 13.526 2 14.816 2 16.526V19.526C2 21.236 4.0955 22.526 6.875 22.526C9.6545 22.526 11.75 21.236 11.75 19.526V16.526C11.75 14.816 9.6545 13.526 6.875 13.526ZM6.875 15.026C8.93525 15.026 10.25 15.9148 10.25 16.526C10.25 17.1373 8.93525 18.026 6.875 18.026C4.81475 18.026 3.5 17.1373 3.5 16.526C3.5 15.9148 4.81475 15.026 6.875 15.026ZM6.875 21.026C4.81475 21.026 3.5 20.1373 3.5 19.526V18.7258C4.36325 19.2253 5.5385 19.526 6.875 19.526C8.2115 19.526 9.38675 19.2253 10.25 18.7258V19.526C10.25 20.1373 8.93525 21.026 6.875 21.026Z" fill="#437DEB"/>
<path d="M18.125 10.526C15.3455 10.526 13.25 11.816 13.25 13.526V19.526C13.25 21.236 15.3455 22.526 18.125 22.526C20.9045 22.526 23 21.236 23 19.526V13.526C23 11.816 20.9045 10.526 18.125 10.526ZM21.5 16.526C21.5 17.1373 20.1852 18.026 18.125 18.026C16.0647 18.026 14.75 17.1373 14.75 16.526V15.7258C15.6133 16.2253 16.7885 16.526 18.125 16.526C19.4615 16.526 20.6368 16.2253 21.5 15.7258V16.526ZM18.125 12.026C20.1852 12.026 21.5 12.9148 21.5 13.526C21.5 14.1373 20.1852 15.026 18.125 15.026C16.0647 15.026 14.75 14.1373 14.75 13.526C14.75 12.9148 16.0647 12.026 18.125 12.026ZM18.125 21.026C16.0647 21.026 14.75 20.1373 14.75 19.526V18.7258C15.6133 19.2253 16.7885 19.526 18.125 19.526C19.4615 19.526 20.6368 19.2253 21.5 18.7258V19.526C21.5 20.1373 20.1852 21.026 18.125 21.026Z" fill="#437DEB"/>
<path d="M21.4999 2.276V6.026C21.4999 6.44 21.1647 6.776 20.7499 6.776C20.3352 6.776 19.9999 6.44 19.9999 6.026V4.0865L14.5302 9.55625C14.2369 9.8495 13.7629 9.8495 13.4697 9.55625L9.49994 5.5865L4.78019 10.3063C4.48694 10.5995 4.01294 10.5995 3.71969 10.3063C3.42644 10.013 3.42644 9.539 3.71969 9.24575L8.96969 3.99575C9.26294 3.7025 9.73694 3.7025 10.0302 3.99575L13.9999 7.9655L18.9394 3.026H16.9999C16.5852 3.026 16.2499 2.69 16.2499 2.276C16.2499 1.862 16.5852 1.526 16.9999 1.526H20.7499C21.1647 1.526 21.4999 1.862 21.4999 2.276Z" fill="#437DEB"/>
</svg>
